<svg width="124" height="24" viewBox="0 0 124 24" fill="none" xmlns="http://www.w3.org/2000/svg">
<g clip-path="url(#clip0_9244_18863)">
<path d="M119.795 18.2219C119.869 19.0565 120.546 20.119 121.721 20.119H122.408C122.536 20.1184 122.659 20.0679 122.75 19.9784C122.841 19.889 122.892 19.7677 122.892 19.6412V4.75575H122.889C122.883 4.63409 122.829 4.5195 122.74 4.43551C122.65 4.35152 122.531 4.3045 122.408 4.30411H120.28C120.156 4.3045 120.037 4.35152 119.948 4.43551C119.858 4.5195 119.805 4.63409 119.798 4.75575H119.795V5.96557C118.491 4.38157 116.435 3.72375 114.373 3.72375C113.258 3.72403 112.154 3.94069 111.125 4.36136C110.095 4.78202 109.159 5.39845 108.371 6.17543C107.583 6.95242 106.958 7.87475 106.532 8.88976C106.106 9.90476 105.886 10.9926 105.887 12.091C105.886 13.1896 106.105 14.2776 106.531 15.2928C106.958 16.308 107.583 17.2305 108.371 18.0077C109.159 18.7849 110.094 19.4015 111.124 19.8224C112.154 20.2432 113.258 20.46 114.373 20.4605C116.435 20.4605 118.682 19.6717 119.795 18.2197V18.2219ZM114.381 17.5314C111.4 17.5314 108.985 15.0965 108.985 12.0921C108.985 9.08775 111.4 6.65284 114.381 6.65284C117.362 6.65284 119.778 9.08775 119.778 12.0921C119.778 15.0965 117.362 17.5314 114.381 17.5314ZM103.196 18.7336V11.0317C103.196 6.68884 100.417 3.75975 95.9889 3.75975C93.8743 3.75975 92.1405 4.9652 91.5282 6.00157C91.3954 5.19102 90.9603 4.34011 89.6074 4.34011H88.9187C88.7902 4.3404 88.667 4.39083 88.5761 4.48038C88.4853 4.56992 88.4341 4.69129 88.4338 4.81793V19.7045H88.4371C88.4504 19.9554 88.6619 20.1561 88.9187 20.1561H91.0477C91.0799 20.1561 91.112 20.1517 91.143 20.1463C91.1574 20.1441 91.1695 20.1376 91.1839 20.1343L91.2315 20.1201C91.2504 20.1114 91.267 20.1016 91.2847 20.0917L91.3112 20.0776C91.332 20.0634 91.3516 20.0478 91.3699 20.0307L91.381 20.023C91.47 19.9394 91.5231 19.8254 91.5294 19.7045H91.5316V10.9117C91.5313 9.79224 91.9823 8.71845 92.7853 7.92654C93.5884 7.13462 94.6778 6.68942 95.814 6.68884C96.95 6.68942 98.0392 7.13447 98.8423 7.92615C99.6453 8.71783 100.096 9.79134 100.096 10.9107L100.098 18.2612V18.259L100.1 18.2787V19.7045H100.102C100.116 19.9554 100.327 20.1561 100.584 20.1561H102.713C102.745 20.1559 102.776 20.1526 102.808 20.1463C102.82 20.1441 102.832 20.1387 102.844 20.1354C102.862 20.131 102.88 20.1267 102.896 20.1201C102.914 20.1125 102.93 20.1027 102.946 20.0939L102.976 20.0776C102.996 20.0642 103.014 20.0497 103.031 20.0339L103.046 20.023C103.066 20.0038 103.084 19.983 103.1 19.9608L103.103 19.9565C103.157 19.8831 103.189 19.796 103.194 19.7056H103.198L103.196 18.7336ZM81.0292 18.2219C81.1034 19.0565 81.7821 20.119 82.9556 20.119H83.6421C83.9078 20.119 84.1259 19.9041 84.1259 19.6412V4.75575H84.1237C84.1169 4.63418 84.0633 4.51974 83.9738 4.4358C83.8843 4.35187 83.7656 4.30476 83.6421 4.30411H81.513C81.3895 4.30476 81.2708 4.35187 81.1813 4.4358C81.0918 4.51974 81.0382 4.63418 81.0314 4.75575H81.0292V5.96557C79.725 4.38157 77.669 3.72375 75.6064 3.72375C74.4917 3.72418 73.388 3.94094 72.3583 4.36167C71.3286 4.7824 70.3931 5.39885 69.6052 6.17582C68.8172 6.95279 68.1923 7.87508 67.7662 8.89001C67.34 9.90494 67.1208 10.9926 67.1213 12.091C67.1213 16.7132 70.9199 20.4605 75.6064 20.4605C77.669 20.4605 79.9154 19.6717 81.0292 18.2197V18.2219ZM75.6153 17.5314C72.6349 17.5314 70.218 15.0965 70.218 12.0921C70.218 9.08775 72.6349 6.65284 75.6153 6.65284C78.5957 6.65284 81.0115 9.08775 81.0115 12.0921C81.0115 15.0965 78.5957 17.5314 75.6153 17.5314ZM54.5342 16.0892C55.9546 17.0601 57.5057 17.5314 58.996 17.5314C60.4164 17.5314 61.8845 16.8059 61.8845 15.5427C61.8845 13.8561 58.6849 13.5932 56.6754 12.919C54.6659 12.2459 52.9344 10.8539 52.9344 8.59902C52.9344 5.14847 56.0521 3.72266 58.9616 3.72266C60.805 3.72266 62.7071 4.32266 63.9405 5.18229C64.3656 5.49866 64.1065 5.86411 64.1065 5.86411L62.9296 7.52229C62.7968 7.70775 62.5665 7.8692 62.2344 7.66738C61.9022 7.46557 60.7375 6.65284 58.9616 6.65284C57.1869 6.65284 56.1163 7.46011 56.1163 8.46375C56.1163 9.66375 57.5069 10.0423 59.1355 10.4525C61.972 11.2063 65.0664 12.1128 65.0664 15.5427C65.0664 18.5819 62.1834 20.4605 58.996 20.4605C56.5813 20.4605 54.5253 19.7819 52.8004 18.5339C52.4417 18.1794 52.6919 17.8499 52.6919 17.8499L53.8633 16.2005C54.1024 15.8928 54.4024 15.9997 54.5342 16.0892ZM46.3513 18.2219C46.4266 19.0565 47.1041 20.119 48.2777 20.119H48.9641C49.0926 20.1184 49.2156 20.0679 49.3064 19.9784C49.3972 19.889 49.4485 19.7677 49.4491 19.6412V4.75575H49.4457C49.4392 4.63409 49.3857 4.5195 49.2961 4.43551C49.2066 4.35152 49.0878 4.3045 48.9641 4.30411H46.8362C46.7127 4.30476 46.594 4.35187 46.5045 4.4358C46.415 4.51974 46.3614 4.63418 46.3546 4.75575H46.3513V5.96557C45.0471 4.38157 42.9911 3.72375 40.9296 3.72375C38.6782 3.72462 36.5194 4.60662 34.9279 6.17575C33.3365 7.74489 32.4428 9.87265 32.4434 12.091C32.4434 16.7132 36.2431 20.4605 40.9296 20.4605C42.9911 20.4605 45.2386 19.6717 46.3513 18.2197V18.2219ZM40.9374 17.5314C37.9569 17.5314 35.5411 15.0965 35.5411 12.0921C35.5411 9.08775 37.9569 6.65284 40.9385 6.65284C43.9189 6.65284 46.3347 9.08775 46.3347 12.0921C46.3347 15.0965 43.9178 17.5314 40.9374 17.5314Z" fill="#690031"/>
<path d="M20.5469 12.66C19.0322 12.66 17.5795 13.2529 16.5085 14.3082C15.4374 15.3636 14.8357 16.795 14.8357 18.2875C14.8357 19.7799 15.4374 21.2113 16.5085 22.2667C17.5795 23.322 19.0322 23.9149 20.5469 23.9149C22.0616 23.9149 23.5143 23.322 24.5853 22.2667C25.6564 21.2113 26.2581 19.7799 26.2581 18.2875C26.2581 16.795 25.6564 15.3636 24.5853 14.3082C23.5143 13.2529 22.0616 12.66 20.5469 12.66ZM5.71008 12.6611C4.95353 12.6507 4.20243 12.7886 3.50041 13.0667C2.7984 13.3448 2.15947 13.7575 1.62074 14.281C1.08202 14.8045 0.654237 15.4283 0.362258 16.116C0.0702791 16.8038 -0.0800781 17.5419 -0.0800781 18.2875C-0.0800781 19.033 0.0702791 19.7711 0.362258 20.4589C0.654237 21.1466 1.08202 21.7704 1.62074 22.2939C2.15947 22.8174 2.7984 23.2301 3.50041 23.5082C4.20243 23.7863 4.95353 23.9242 5.71008 23.9138C7.21072 23.8932 8.64281 23.2914 9.69661 22.2385C10.7504 21.1856 11.3412 19.7662 11.3412 18.2875C11.3412 16.8087 10.7504 15.3893 9.69661 14.3364C8.64281 13.2835 7.21072 12.6817 5.71008 12.6611ZM18.8386 5.62691C18.8386 7.11926 18.2369 8.55048 17.166 9.60573C16.095 10.661 14.6425 11.2538 13.1279 11.2538C11.6134 11.2538 10.1609 10.661 9.0899 9.60573C8.01895 8.55048 7.41729 7.11926 7.41729 5.62691C7.41729 4.13456 8.01895 2.70333 9.0899 1.64808C10.1609 0.592833 11.6134 0 13.1279 0C14.6425 0 16.095 0.592833 17.166 1.64808C18.2369 2.70333 18.8386 4.13456 18.8386 5.62691Z" fill="#FF584A"/>
</g>
<defs>
<clipPath id="clip0_9244_18863">
<rect width="124" height="24" fill="white"/>
</clipPath>
</defs>
</svg>
