<svg width="106" height="32" viewBox="0 0 106 32" fill="none" xmlns="http://www.w3.org/2000/svg">
<g clip-path="url(#clip0_10709_29262)">
<path d="M85.3309 26.5341H21.2009L26.3105 31.6583L85.3309 26.5341ZM27.1427 5.79649V6.55285C26.0536 5.77606 24.7523 5.35521 23.4162 5.34766C18.9236 5.34766 15.5117 9.46194 15.5117 14.5113C15.5117 19.5606 18.9236 23.6749 23.4162 23.6749C24.7523 23.6674 26.0536 23.2465 27.1427 22.4697V23.2427H31.0929V5.78818L27.1427 5.79649ZM23.4162 19.4817C21.2009 19.4817 19.5778 17.2957 19.5778 14.5279C19.5778 11.7601 21.2009 9.57415 23.4162 9.57415C25.6314 9.57415 27.1966 11.7643 27.1966 14.5279C27.1966 17.2916 25.6397 19.4817 23.4203 19.4817H23.4162ZM58.7813 5.79649V16.0531C58.7813 17.9814 57.4604 19.6064 55.5433 19.6064C53.6262 19.6064 52.3095 17.9814 52.3095 16.0531V5.79649H48.3552V16.0531C48.3552 20.263 51.2246 23.6916 55.4191 23.6916C56.6204 23.6733 57.7892 23.2972 58.7771 22.611V23.2593H62.7231V5.8048L58.7813 5.79649ZM95.579 23.2593V12.9986C95.579 11.0744 96.8957 9.44947 98.817 9.44947C100.738 9.44947 102.051 11.0744 102.051 12.9986V23.2593H106.001V12.9986C106.001 8.7887 103.131 5.36428 98.937 5.36428C97.7357 5.38252 96.5669 5.75861 95.579 6.4448V5.79649H91.6288V23.251L95.579 23.2593Z" fill="#BF0000"/>
<path d="M4.13234 23.2603V16.4945H7.03078L12.1113 23.2603H17.2995L11.1673 15.0982C12.4638 14.1746 13.4341 12.861 13.9378 11.3475C14.4416 9.83398 14.4527 8.19887 13.9696 6.67857C13.4865 5.15827 12.5342 3.83156 11.2504 2.89023C9.96661 1.94891 8.4178 1.44175 6.82789 1.44208H0V23.2603H4.13234ZM4.13234 5.58545H6.82789C7.7218 5.58545 8.57909 5.94186 9.21117 6.57627C9.84326 7.21068 10.1984 8.07112 10.1984 8.96831C10.1984 9.8655 9.84326 10.7259 9.21117 11.3604C8.57909 11.9948 7.7218 12.3512 6.82789 12.3512H4.13234V5.58545ZM73.3719 19.1294C72.983 19.3975 72.5228 19.5423 72.051 19.5449C71.4051 19.5449 70.1919 19.0504 70.1919 17.4047V9.92416H73.5665V5.76831H70.1919V1.44208H66.2417V5.7974H64.1714V9.95325H66.2417V17.4878C66.2417 21.3901 69.165 23.7216 72.1131 23.7216C73.4718 23.6842 74.7996 23.3071 75.9763 22.6244L73.3719 19.1294ZM40.9094 13.9803L47.6834 5.79325H42.1474L37.4105 11.8816V0H33.3403V23.2603H37.4105V16.0873L43.2323 23.2603H48.7683L40.9094 13.9803Z" fill="#BF0000"/>
<path d="M82.4941 5.35156C77.9395 5.35156 74.627 9.38273 74.627 14.5277C74.627 19.9303 78.7427 23.7038 82.8709 23.7038C84.9413 23.7038 87.6244 22.989 89.8645 19.7931L86.3946 17.7734C83.6949 21.763 79.1982 19.7391 78.6806 15.7495H90.0591C91.0321 9.46169 86.9909 5.35156 82.4941 5.35156ZM85.9433 12.271H78.8297C79.662 8.18169 85.1731 7.94897 85.9433 12.271Z" fill="#BF0000"/>
</g>
<defs>
<clipPath id="clip0_10709_29262">
<rect width="106" height="32" fill="white"/>
</clipPath>
</defs>
</svg>
