<svg xmlns="http://www.w3.org/2000/svg" width="160" height="28" viewBox="0 0 1374 240" fill="none">
<path d="M1295.78 240C1244.53 240 1213.44 206.719 1213.44 153.125V152.969C1213.44 99.6875 1244.84 65.625 1293.91 65.625C1342.97 65.625 1373.75 98.9062 1373.75 149.531V163.594H1258.44C1258.91 190.312 1273.44 205.938 1296.72 205.938C1315.47 205.938 1326.88 195.625 1330.16 186.25L1330.47 185.312H1372.34L1371.88 187.031C1366.72 211.719 1343.59 240 1295.78 240ZM1294.69 99.6875C1275.94 99.6875 1261.88 112.188 1258.91 134.844H1330C1327.19 111.719 1313.59 99.6875 1294.69 99.6875Z" fill="black"/>
<path d="M1090.94 240C1048.75 240 1022.81 207.188 1022.81 152.812V152.656C1022.81 98.125 1048.75 65.625 1090.94 65.625C1114.69 65.625 1133.44 77.8125 1142.5 98.125H1143.44V11.0938H1189.06V236.562H1143.44V207.969H1142.5C1133.59 227.812 1115.16 240 1090.94 240ZM1106.25 202.188C1128.44 202.188 1143.59 183.125 1143.59 152.812V152.656C1143.59 122.5 1128.28 103.438 1106.25 103.438C1083.59 103.438 1069.22 122.031 1069.22 152.656V152.812C1069.22 183.281 1083.44 202.188 1106.25 202.188Z" fill="black"/>
<path d="M922.344 240C871.406 240 839.375 207.344 839.375 152.812V152.5C839.375 98.5938 872.188 65.625 922.188 65.625C972.344 65.625 1005.31 98.2812 1005.31 152.5V152.812C1005.31 207.5 972.969 240 922.344 240ZM922.5 204.219C944.688 204.219 958.906 185.469 958.906 152.812V152.5C958.906 120.156 944.375 101.406 922.188 101.406C900.156 101.406 885.781 120.156 885.781 152.5V152.812C885.781 185.625 900 204.219 922.5 204.219Z" fill="black"/>
<path d="M747.656 240C696.562 240 665 206.719 665 152.656V152.5C665 98.9062 697.031 65.625 747.188 65.625C792.656 65.625 821.562 93.5938 823.281 129.844V130.938H780.938L780.625 129.531C777.812 113.594 766.719 101.406 747.812 101.406C725.469 101.406 711.406 120.625 711.406 152.656V152.812C711.406 185.625 725.469 204.219 747.969 204.219C766.25 204.219 777.656 192.969 780.781 176.094L780.938 174.688H823.438V175.625C821.25 212.188 792.344 240 747.656 240Z" fill="black"/>
<path d="M569.531 240C518.281 240 487.188 206.719 487.188 153.125V152.969C487.188 99.6875 518.594 65.625 567.656 65.625C616.719 65.625 647.5 98.9062 647.5 149.531V163.594H532.188C532.656 190.312 547.188 205.938 570.469 205.938C589.219 205.938 600.625 195.625 603.906 186.25L604.219 185.312H646.094L645.625 187.031C640.469 211.719 617.344 240 569.531 240ZM568.438 99.6875C549.688 99.6875 535.625 112.188 532.656 134.844H603.75C600.938 111.719 587.344 99.6875 568.438 99.6875Z" fill="black"/>
<path d="M401.562 240C377.5 240 359.062 227.812 350 207.969H349.062V236.562H303.438V11.0938H349.062V98.125H350C359.219 77.8125 377.812 65.625 401.719 65.625C443.75 65.625 469.844 98.125 469.844 152.656V152.812C469.844 207.188 443.75 240 401.562 240ZM386.406 202.188C409.062 202.188 423.438 183.281 423.438 152.812V152.656C423.438 122.031 409.062 103.438 386.406 103.438C364.375 103.438 349.062 122.5 349.062 152.656V152.812C349.062 183.125 364.219 202.188 386.406 202.188Z" fill="black"/>
<path d="M248.906 47.5C235.156 47.5 224.531 36.7188 224.531 23.75C224.531 10.7812 235.156 0 248.906 0C262.656 0 273.281 10.7812 273.281 23.75C273.281 36.7188 262.656 47.5 248.906 47.5ZM226.094 236.562V69.0625H271.719V236.562H226.094Z" fill="black"/>
<path d="M75.4688 236.562L0 11.0938H52.1875L103.75 188.281H104.688L156.094 11.0938H208.438L132.969 236.562H75.4688Z" fill="black"/>
</svg>