<svg width="227" height="32" viewBox="0 0 227 32" fill="none" xmlns="http://www.w3.org/2000/svg">
<path d="M11.0036 11.4827H22.1106V24.5079H18.5232V21.4231C16.9711 23.5138 14.6254 25.0221 11.176 25.0221C4.44971 25.0221 0 19.8463 0 12.5796C0 5.24435 4.58768 0 11.6244 0C17.2124 0 20.6963 3.01636 21.8691 6.95818H17.7989C16.8676 4.83303 14.9359 3.2563 11.6244 3.2563C6.86427 3.2563 4.07028 6.92392 4.07028 12.5796C4.07028 18.2353 7.03675 21.7658 11.8659 21.7658C15.5912 21.7658 17.4884 20.1548 18.5232 18.1324V14.5334H11.0036V11.4827Z" fill="black"/>
<path d="M32.8825 25.0183C27.4324 25.0183 24.2935 21.2479 24.2935 15.9349C24.2935 10.622 27.3634 6.85156 32.6755 6.85156C37.8496 6.85156 40.9195 10.4506 40.9195 16.5176H28.0534C28.0879 19.9453 29.7435 22.1048 32.8825 22.1048C35.2626 22.1048 36.4699 20.8708 37.0217 19.5683H40.747C39.9192 22.5504 37.2977 25.0183 32.8825 25.0183ZM28.1224 13.9469H37.2632C36.9527 11.6503 35.6074 9.69653 32.6755 9.69653C29.8125 9.69653 28.3982 11.6503 28.1224 13.9469Z" fill="black"/>
<path d="M43.3257 24.5041V7.36571H46.9131V10.2792C47.9479 8.25691 49.9486 6.85156 52.501 6.85156C56.1575 6.85156 58.3651 9.1481 58.3651 12.9528V24.5041H54.7777V13.7755C54.7777 10.862 53.4669 9.90219 51.5697 9.90219C48.8103 9.90219 47.327 12.0616 46.9131 13.6384V24.5041H43.3257Z" fill="black"/>
<path d="M69.214 25.0183C63.7639 25.0183 60.625 21.2479 60.625 15.9349C60.625 10.622 63.695 6.85156 69.007 6.85156C74.1811 6.85156 77.2511 10.4506 77.2511 16.5176H64.3849C64.4193 19.9453 66.0751 22.1048 69.214 22.1048C71.594 22.1048 72.8013 20.8708 73.3533 19.5683H77.0786C76.2507 22.5504 73.6293 25.0183 69.214 25.0183ZM64.4538 13.9469H73.5948C73.2843 11.6503 71.939 9.69653 69.007 9.69653C66.1441 9.69653 64.7298 11.6503 64.4538 13.9469Z" fill="black"/>
<path d="M79.6572 24.5072V7.36885H83.2447V10.6937C83.969 8.94558 85.4866 7.12891 88.2462 7.12891C88.7291 7.12891 89.4191 7.19746 89.7984 7.30029V10.4538C89.2466 10.2824 88.6946 10.1795 87.9358 10.1795C84.9003 10.1795 83.555 12.716 83.2447 14.0528V24.5072H79.6572Z" fill="black"/>
<path d="M95.7135 25.0183C92.1607 25.0183 89.7461 22.9616 89.7461 19.8081C89.7461 16.5176 91.6432 15.1122 97.0588 13.9469C100.094 13.3299 101.439 12.7472 101.439 11.5475C101.439 10.4849 100.301 9.62798 97.9901 9.62798C95.7825 9.62798 94.2647 10.6563 94.0579 12.1302H90.2634C90.5394 9.38804 93.2644 6.85156 97.9901 6.85156C102.578 6.85156 105.027 9.11383 105.027 12.1645V19.5683C105.027 21.9676 105.199 22.9616 106.131 24.5041H102.371C101.853 23.8871 101.439 22.8245 101.439 21.8305C100.612 23.3044 98.9559 25.0183 95.7135 25.0183ZM96.8173 22.2075C99.3354 22.2075 100.784 20.6651 101.439 19.0199V14.0497C101.164 15.0437 99.7838 15.6264 97.8866 16.1064C94.8857 16.8261 93.5404 17.7516 93.5404 19.4311C93.5404 21.145 94.7477 22.2075 96.8173 22.2075Z" fill="black"/>
<path d="M108.376 24.5054V0.511719H111.964V24.5054H108.376Z" fill="black"/>
<path d="M137.259 15.1955C137.84 15.7747 137.84 16.7136 137.259 17.2928L134.803 19.7397C132.865 21.6702 129.723 21.6702 127.785 19.7397L121.119 13.0981C120.537 12.519 120.537 11.5799 121.119 11.0008C121.7 10.4216 122.643 10.4216 123.224 11.0008L128.838 16.5936C130.194 17.9451 132.394 17.9451 133.75 16.5936L135.154 15.1955C135.735 14.6163 136.678 14.6163 137.259 15.1955Z" fill="black"/>
<path d="M125.329 8.9062C124.748 8.32705 124.748 7.38804 125.329 6.80887L127.785 4.36197C129.723 2.43143 132.865 2.43142 134.803 4.36197L141.469 11.0035C142.051 11.5827 142.051 12.5217 141.469 13.1009C140.888 13.68 139.945 13.68 139.364 13.1009L133.75 7.50799C132.394 6.1566 130.194 6.1566 128.838 7.50799L127.434 8.9062C126.853 9.48537 125.91 9.48537 125.329 8.9062Z" fill="black"/>
<path d="M120.861 10.746C121.584 10.0256 122.758 10.0256 123.481 10.746L129.095 16.3395C130.31 17.5488 132.278 17.549 133.493 16.3395L134.896 14.9408C135.62 14.2202 136.793 14.2202 137.516 14.9408C138.239 15.6612 138.239 16.8296 137.516 17.55L135.06 19.9968C132.98 22.0686 129.608 22.0686 127.528 19.9968L120.861 13.3554C120.138 12.6349 120.138 11.4666 120.861 10.746ZM123.224 11.002C122.642 10.4228 121.7 10.4228 121.118 11.002L121.016 11.1152C120.539 11.6976 120.574 12.5565 121.118 13.0993L127.785 19.7409C129.662 21.611 132.669 21.6692 134.617 19.9161L134.802 19.7409L137.259 17.294C137.803 16.7512 137.838 15.8922 137.361 15.3098L137.259 15.1967C136.677 14.6175 135.735 14.6175 135.153 15.1967L133.75 16.5948L133.486 16.833C132.213 17.8672 130.375 17.867 129.102 16.833L128.838 16.5948L123.224 11.002ZM127.528 4.10468C129.608 2.03281 132.98 2.03281 135.06 4.10468L141.725 10.746C142.449 11.4666 142.449 12.6348 141.725 13.3554C141.002 14.0755 139.83 14.0757 139.107 13.3554L133.493 7.76197C132.278 6.55237 130.31 6.55251 129.095 7.76197L127.692 9.16066C126.968 9.88116 125.795 9.88116 125.072 9.16066C124.349 8.44016 124.349 7.2719 125.072 6.55136L127.528 4.10468ZM134.802 4.36038C132.865 2.42983 129.723 2.42984 127.785 4.36038L125.329 6.80728L125.226 6.92047C124.75 7.50294 124.784 8.36178 125.329 8.90461C125.874 9.44756 126.736 9.48159 127.321 9.00652L127.434 8.90461L128.838 7.50639C130.194 6.15501 132.393 6.15501 133.75 7.50639L139.364 13.0993C139.909 13.6423 140.772 13.6764 141.356 13.2012L141.469 13.0993C142.014 12.5563 142.047 11.6977 141.571 11.1152L141.469 11.002L134.802 4.36038Z" fill="black"/>
<path d="M150.625 24.5055V0.511719H154.453V21.3862H166.836V24.5055H150.625Z" fill="black"/>
<path d="M175.461 25.0222C170.011 25.0222 166.871 21.2517 166.871 15.9388C166.871 10.6259 169.941 6.85547 175.254 6.85547C180.429 6.85547 183.497 10.4545 183.497 16.5216H170.631C170.666 19.9492 172.321 22.1086 175.461 22.1086C177.841 22.1086 179.049 20.8747 179.599 19.5722H183.325C182.497 22.5542 179.876 25.0222 175.461 25.0222ZM170.701 13.9508H179.841C179.531 11.6542 178.186 9.70044 175.254 9.70044C172.391 9.70044 170.976 11.6542 170.701 13.9508Z" fill="black"/>
<path d="M193.561 31.8775C188.456 31.8775 186.145 29.1696 185.593 26.7017H189.422C189.905 27.9015 191.043 29.0326 193.561 29.0326C196.356 29.0326 198.046 27.7301 198.046 24.8507V21.1832C197.011 23.2055 195.01 24.6795 192.423 24.6795C188.008 24.6795 184.903 21.2517 184.903 15.7674C184.903 10.5574 188.008 6.85547 192.423 6.85547C195.045 6.85547 197.046 8.26081 198.046 10.2489V7.36962H201.633V24.3366C201.633 29.204 198.976 31.8775 193.561 31.8775ZM193.251 21.6287C196.251 21.6287 198.046 19.3666 198.046 15.7674C198.046 12.1684 196.251 9.9061 193.251 9.9061C190.457 9.9061 188.732 12.1684 188.732 15.7674C188.732 19.3666 190.457 21.6287 193.251 21.6287Z" fill="black"/>
<path d="M209.875 25.0222C206.323 25.0222 203.908 22.9656 203.908 19.8121C203.908 16.5216 205.805 15.1162 211.221 13.9508C214.256 13.3338 215.601 12.7511 215.601 11.5514C215.601 10.4888 214.463 9.63189 212.153 9.63189C209.945 9.63189 208.427 10.6602 208.22 12.1341H204.425C204.702 9.39195 207.427 6.85547 212.153 6.85547C216.74 6.85547 219.189 9.11774 219.189 12.1684V19.5722C219.189 21.9716 219.361 22.9656 220.293 24.5081H216.533C216.016 23.8911 215.601 22.8285 215.601 21.8345C214.773 23.3083 213.118 25.0222 209.875 25.0222ZM210.98 22.2115C213.498 22.2115 214.946 20.6691 215.601 19.0237V14.0536C215.326 15.0477 213.946 15.6303 212.048 16.1102C209.048 16.8301 207.703 17.7556 207.703 19.4351C207.703 21.1488 208.91 22.2115 210.98 22.2115Z" fill="black"/>
<path d="M222.539 24.5055V0.511719H226.126V24.5055H222.539Z" fill="black"/>
</svg>
