<svg width="189" height="24" viewBox="0 0 189 24" fill="none" xmlns="http://www.w3.org/2000/svg">
<path d="M118.211 17.3516C118.211 14.0615 116.444 12.5029 111.523 11.4293C108.786 10.8406 108.128 10.2172 108.128 9.35133C108.128 8.27771 109.098 7.79285 110.9 7.79285C113.083 7.79285 115.231 8.45087 117.275 9.38597V5.05682C115.855 4.32953 113.637 3.77539 111.038 3.77539C106.153 3.77539 103.624 5.88801 103.624 9.38597C103.624 12.1566 104.905 14.3731 109.964 15.3428C112.979 15.9662 113.602 16.4511 113.602 17.4555C113.602 18.4253 112.979 19.0487 110.831 19.0487C108.37 19.0487 105.425 18.2174 103.52 17.0745V21.6115C105.044 22.3734 107.054 23.2046 110.796 23.2046C116.097 23.2046 118.211 20.8495 118.211 17.3516Z" fill="#1868DB"/>
<path d="M171.502 4.05273V22.9278H175.521V8.55505L177.219 12.3646L182.901 22.9278H187.96V4.05273H183.941V16.2436L182.416 12.7111L177.843 4.05273H171.502Z" fill="#1868DB"/>
<path d="M145.966 4.05273H141.566V22.8932H145.966V4.05273Z" fill="#1868DB"/>
<path d="M136.472 17.3516C136.472 14.0615 134.705 12.5029 129.785 11.4293C127.048 10.8406 126.389 10.2172 126.389 9.35133C126.389 8.27771 127.359 7.79285 129.161 7.79285C131.344 7.79285 133.493 8.45087 135.537 9.38597V5.05682C134.116 4.32953 131.898 3.77539 129.3 3.77539C124.414 3.77539 121.884 5.88801 121.884 9.38597C121.884 12.1566 123.167 14.3731 128.226 15.3428C131.24 15.9662 131.863 16.4511 131.863 17.4555C131.863 18.4253 131.24 19.0487 129.091 19.0487C126.631 19.0487 123.687 18.2174 121.781 17.0745V21.6115C123.306 22.3734 125.316 23.2046 129.058 23.2046C134.393 23.2046 136.472 20.8495 136.472 17.3516Z" fill="#1868DB"/>
<path d="M69.5312 4.05273V22.9278H78.5399L79.9605 18.841H73.9316V4.05273H69.5312Z" fill="#1868DB"/>
<path d="M51.6855 4.05273V8.13944H56.5711V22.9279H60.9716V8.13944H66.2036V4.05273H51.6855Z" fill="#1868DB"/>
<path d="M45.276 4.05273H39.4896L32.9062 22.9278H37.9304L38.8659 19.7415C39.9746 20.0533 41.1527 20.261 42.4001 20.261C43.6128 20.261 44.7909 20.0878 45.9343 19.7415L46.8698 22.9278H51.8939L45.276 4.05273ZM42.3655 16.3476C41.5339 16.3476 40.7023 16.209 39.94 16.0011L42.3655 7.75849L44.7909 16.0011C44.0286 16.209 43.2317 16.3476 42.3655 16.3476Z" fill="#1868DB"/>
<path d="M94.1313 4.05273H88.3449L81.7617 22.8931H86.7858L87.7212 19.7069C88.8301 20.0186 90.0082 20.2264 91.2555 20.2264C92.4682 20.2264 93.6463 20.0532 94.7897 19.7069L95.7252 22.8931H100.749L94.1313 4.05273ZM91.2208 16.3475C90.3892 16.3475 89.5577 16.209 88.7954 16.0012L91.2208 7.75848L93.6463 16.0012C92.884 16.209 92.0525 16.3475 91.2208 16.3475Z" fill="#1868DB"/>
<path d="M161.765 4.05273H155.978L149.395 22.8931H154.419L155.355 19.7069C156.463 20.0186 157.641 20.2264 158.888 20.2264C160.101 20.2264 161.28 20.0532 162.423 19.7069L163.358 22.8931H168.382L161.765 4.05273ZM158.888 16.3475C158.058 16.3475 157.226 16.209 156.463 16.0012L158.888 7.75848L161.315 16.0012C160.518 16.209 159.72 16.3475 158.888 16.3475Z" fill="#1868DB"/>
<path d="M7.67944 10.5978C7.33295 10.2169 6.81322 10.2515 6.57067 10.7018L0.922883 21.9575C0.714989 22.4077 1.02683 22.9272 1.51192 22.9272H9.34259C9.58514 22.9272 9.82768 22.7887 9.93163 22.5463C11.6641 19.0483 10.6246 13.7495 7.67944 10.5978Z" fill="#1868DB"/>
<path d="M11.8033 0.346795C8.65026 5.33396 8.85815 10.8406 10.9371 14.9966C13.016 19.1526 14.6099 22.3042 14.7139 22.5467C14.8178 22.7891 15.0603 22.9276 15.3029 22.9276H23.1336C23.6186 22.9276 23.9652 22.4081 23.7225 21.9578C23.7225 21.9578 13.1893 0.900925 12.9121 0.381429C12.7042 -0.103436 12.1152 -0.138069 11.8033 0.346795Z" fill="#1868DB"/>
</svg>
