<svg width="141" height="31" viewBox="0 0 141 31" fill="none" xmlns="http://www.w3.org/2000/svg">
<g clip-path="url(#clip0_12351_31811)">
<mask id="mask0_12351_31811" style="mask-type:luminance" maskUnits="userSpaceOnUse" x="0" y="0" width="141" height="31">
<path d="M140.995 0H0V30.9989H140.995V0Z" fill="white"/>
</mask>
<g mask="url(#mask0_12351_31811)">
<path d="M20.3928 1.54305C20.0997 1.05557 19.6857 0.652304 19.1912 0.372362C18.6966 0.0924205 18.1381 -0.0546875 17.5701 -0.0546875C17.0021 -0.0546875 16.4437 0.0924205 15.9491 0.372362C15.4545 0.652304 15.0405 1.05557 14.7473 1.54305L10.104 9.51106C13.6514 11.2854 16.6738 13.9586 18.8711 17.2652C21.0684 20.5717 22.3642 24.3966 22.6299 28.36H19.3696C19.1045 24.9627 17.9584 21.6935 16.0449 18.8761C14.1315 16.0588 11.5167 13.7907 8.45976 12.2967L4.16215 19.7415C5.88072 20.5137 7.37793 21.7065 8.51609 23.21C9.65427 24.7136 10.3969 26.4796 10.6756 28.3458H3.18832C3.09952 28.3395 3.01368 28.3112 2.93854 28.2634C2.86341 28.2155 2.80134 28.1497 2.75793 28.0719C2.71452 27.994 2.69114 27.9066 2.68989 27.8174C2.68864 27.7283 2.70957 27.6402 2.75079 27.5611L4.8255 24.026C4.12259 23.4385 3.31926 22.9833 2.45441 22.6827L0.400873 26.2178C0.187091 26.5852 0.0483036 26.9914 -0.00742385 27.413C-0.0631514 27.8346 -0.0347088 28.263 0.0762515 28.6735C0.187212 29.084 0.378478 29.4683 0.638938 29.8041C0.899398 30.1399 1.22386 30.4205 1.59348 30.6296C2.08046 30.9044 2.62935 31.0504 3.18832 31.0537H13.4419C13.6323 28.6994 13.2127 26.3357 12.2236 24.1916C11.2346 22.0475 9.70958 20.1956 7.79642 18.8154L9.42654 15.9873C11.841 17.6487 13.7813 19.9122 15.0559 22.5543C16.3306 25.1965 16.8956 28.126 16.6951 31.0537H25.382C25.5843 26.6186 24.6213 22.208 22.5892 18.2627C20.557 14.3172 17.5269 10.9753 13.8018 8.57075L17.0973 2.91465C17.1708 2.79137 17.2898 2.70216 17.4285 2.66641C17.5673 2.63065 17.7146 2.65127 17.8382 2.72376C18.2123 2.92879 32.1565 27.3066 32.4176 27.5894C32.4636 27.672 32.487 27.7654 32.4855 27.86C32.4839 27.9545 32.4574 28.047 32.4088 28.1281C32.3601 28.2092 32.2909 28.2759 32.2081 28.3216C32.1254 28.3673 32.0322 28.3903 31.9377 28.3883H28.5788C28.6211 29.2885 28.6211 30.1865 28.5788 31.082H31.9519C32.3802 31.0848 32.8048 31.0024 33.2012 30.8397C33.5976 30.6771 33.9578 30.4372 34.261 30.1341C34.5642 29.831 34.8044 29.4706 34.9676 29.0738C35.1309 28.6771 35.214 28.2518 35.2121 27.8227C35.2125 27.2559 35.0615 26.6993 34.7747 26.2107L20.3928 1.54305ZM87.6585 19.9395L77.2425 6.46385H74.6456V24.528H77.2778V10.6847L87.99 24.528H90.2906V6.46385H87.6585V19.9395ZM61.4282 16.5882H70.7644V14.241H61.4211V8.80406H71.957V6.45678H58.7395V24.528H72.0911V22.1807H61.4211L61.4282 16.5882ZM50.4478 14.2975C46.8135 13.4208 45.7974 12.728 45.7974 11.0453C45.7974 9.53227 47.1311 8.50711 49.1212 8.50711C50.9334 8.56029 52.6813 9.19194 54.1103 10.3099L55.5216 8.30915C53.7127 6.88839 51.4686 6.13894 49.1706 6.18811C45.5998 6.18811 43.1088 8.30915 43.1088 11.3281C43.1088 14.5803 45.2258 15.7045 49.0788 16.6448C52.5085 17.4367 53.5599 18.172 53.5599 19.8193C53.5599 21.4667 52.1486 22.4847 49.9679 22.4847C47.7971 22.4747 45.7082 21.6528 44.1108 20.1799L42.523 22.0817C44.569 23.8431 47.1786 24.8092 49.8762 24.8038C53.7433 24.8038 56.2273 22.718 56.2273 19.494C56.2062 16.765 54.5972 15.3015 50.4478 14.2975ZM138.03 6.46385L132.603 14.948L127.212 6.46385H124.064L131.185 17.3872V24.5351H133.895V17.3023L141.065 6.46385H138.03ZM92.4218 8.91011H98.3283V24.5351H101.038V8.91011H106.945V6.46385H92.4288L92.4218 8.91011ZM119.477 17.4791C122.201 16.7226 123.711 14.8137 123.711 12.0846C123.711 8.61317 121.178 6.4285 117.093 6.4285H109.076V24.521H111.758V18.0306H116.31L120.881 24.5351H124.015L119.075 17.5922L119.477 17.4791ZM111.751 15.7116V8.85355H116.811C119.449 8.85355 120.959 10.105 120.959 12.2755C120.959 14.446 119.343 15.7116 116.839 15.7116H111.751Z" fill="#362D59"/>
</g>
</g>
<defs>
<clipPath id="clip0_12351_31811">
<rect width="140.995" height="30.9989" fill="white"/>
</clipPath>
</defs>
</svg>
