<svg width="181" height="38" viewBox="0 0 181 38" fill="none" xmlns="http://www.w3.org/2000/svg">
<g clip-path="url(#clip0_18599_9115)">
<path d="M0 0H11.4789C18.9199 0 23.4868 3.51529 23.4868 9.36234C23.4868 12.7363 22.0233 15.2977 19.3607 16.6755C22.7815 17.9651 24.6683 21.6217 24.6683 26.4619C24.6683 32.6799 19.8369 36.725 12.484 36.725H0V0ZM12.149 13.6902C14.4765 13.6902 15.8518 12.4006 15.8518 10.3162C15.8518 8.23179 14.4765 6.94226 12.149 6.94226H7.88184V13.6902H12.149ZM12.5722 29.8004C15.1817 29.8004 16.6982 28.4226 16.6982 26.0379C16.6982 23.6532 15.1817 22.2753 12.5722 22.2753H7.88184V29.7829H12.5722V29.8004Z" fill="white"/>
<path d="M26.6753 0H34.1692V36.7427H26.6753V0Z" fill="white"/>
<path d="M36.5889 24.2272C36.5889 16.4723 42.5664 10.9609 50.0074 10.9609C57.4484 10.9609 63.4259 16.4723 63.4259 24.2272C63.4259 31.982 57.4484 37.4934 50.0074 37.4934C42.5664 37.4934 36.5889 31.982 36.5889 24.2272ZM50.0074 30.4982C53.3753 30.4982 55.932 27.9721 55.932 24.2272C55.932 20.4823 53.3753 17.9562 50.0074 17.9562C46.6395 17.9562 44.0829 20.4823 44.0829 24.2272C44.0829 27.9721 46.6395 30.4982 50.0074 30.4982Z" fill="white"/>
<path d="M65.1353 24.1868C65.1353 16.4319 70.6895 11.2031 78.4655 11.2031C79.6117 11.2031 80.9341 11.2915 82.3977 11.4858V18.2868C81.2516 18.1454 80.1759 18.057 79.3119 18.057C74.939 18.057 72.6291 20.6185 72.6291 24.1868C72.6291 27.755 74.9566 30.2634 79.3119 30.2634C80.1583 30.2634 81.2516 30.1751 82.3977 30.0338V36.87C80.9341 37.0644 79.5941 37.1527 78.4655 37.1527C70.6895 37.1527 65.1353 31.9239 65.1353 24.1691V24.1868Z" fill="white"/>
<path d="M92.4553 26.3735V36.7427H84.9614V0H92.4553V21.1094L99.3321 11.5528H107.637L99.1381 23.4765L107.866 36.7427H98.997L92.4553 26.3735Z" fill="white"/>
<path d="M109.619 0H117.113V7.70184H109.619V0ZM109.619 11.5528H117.113V36.7427H109.619V11.5528Z" fill="white"/>
<path d="M122.471 18.2896H119.473V11.5416H122.471V5.07633L129.965 2.65625V11.5416H132.998V18.2896H129.965L129.911 36.7316H122.418L122.471 18.2896Z" fill="white"/>
<path d="M136.039 0H137.73L140.34 7.68418H138.542L138.189 6.5183H135.615L135.262 7.68418H133.481L136.039 0ZM137.713 5.03446L136.866 2.31409L136.039 5.03446H137.713Z" fill="white"/>
<path d="M140.832 0H142.56V7.68418H140.832V0Z" fill="white"/>
<path d="M170.969 18.1481V27.2221H161.991V18.1481H170.969V9.07404H161.991V0H153.013V36.2962H179.943V18.1481H170.963H170.969Z" fill="#F28069"/>
</g>
<defs>
<clipPath id="clip0_18599_9115">
<rect width="181" height="37.467" fill="white"/>
</clipPath>
</defs>
</svg>
