<svg width="128" height="36" viewBox="0 0 128 36" fill="none" xmlns="http://www.w3.org/2000/svg">
<mask id="mask0_11900_36681" style="mask-type:luminance" maskUnits="userSpaceOnUse" x="0" y="0" width="128" height="36">
<path d="M0 0H127.06V36H0V0Z" fill="white"/>
</mask>
<g mask="url(#mask0_11900_36681)">
<mask id="mask1_11900_36681" style="mask-type:luminance" maskUnits="userSpaceOnUse" x="0" y="0" width="36" height="36">
<path d="M35.0037 0H0V35.994H35.0037V0Z" fill="white"/>
</mask>
<g mask="url(#mask1_11900_36681)">
<path fill-rule="evenodd" clip-rule="evenodd" d="M22.4341 0.0818768L2.20038 1.54948C0.568076 1.68748 0 2.73628 0 3.99148V25.7775C0 26.7567 0.353524 27.5931 1.20686 28.7103L5.96358 34.7859C6.74377 35.7639 7.45448 35.9739 8.94659 35.9019L32.4437 34.5063C34.4308 34.3671 35.0001 33.4587 35.0001 31.9227V7.41388C35.0001 6.61948 34.6807 6.39028 33.7396 5.71468C33.6859 5.67593 33.6323 5.63713 33.5787 5.59828L27.1202 1.12948C25.5586 0.0134768 24.9173 -0.128123 22.4341 0.0818768ZM9.47931 7.01188C7.56053 7.13908 7.12533 7.16788 6.0355 6.29668L3.26461 4.13188C2.98179 3.85228 3.12442 3.50308 3.8339 3.43468L23.2862 2.03788C24.9186 1.89748 25.7707 2.45788 26.4094 2.94508L29.746 5.31988C29.8874 5.38948 30.2421 5.80828 29.8167 5.80828L9.72678 6.99628L9.47931 7.01188ZM7.24114 31.7127V10.9047C7.24114 9.99748 7.52518 9.57868 8.3773 9.50788L31.449 8.18188C32.2316 8.11228 32.5864 8.60188 32.5864 9.50788V30.1755C32.5864 31.0851 32.4437 31.8531 31.165 31.9227L9.088 33.1803C7.808 33.2499 7.24114 32.8323 7.24114 31.7127ZM29.0377 12.0207C29.1791 12.6507 29.0377 13.2795 28.3965 13.3503L27.3335 13.5591V28.9191C26.4094 29.4087 25.5573 29.6871 24.8478 29.6871C23.7117 29.6871 23.4277 29.3391 22.5755 28.2915L15.6184 17.5395V27.9435L17.82 28.4319C17.82 28.4319 17.82 29.6883 16.0427 29.6883L11.1458 29.9679C11.0031 29.6883 11.1458 28.9899 11.6431 28.8507L12.9207 28.5027V14.7447L11.1458 14.6043C11.0043 13.9755 11.3579 13.0683 12.3526 12.9987L17.6067 12.6507L24.8478 23.5431V13.9071L23.0022 13.6983C22.8596 12.9291 23.4277 12.3699 24.1371 12.3015L29.0377 12.0207Z" fill="#FAF9F5"/>
</g>
<path d="M62.1662 8.42433V27.8763H59.0125L49.6637 14.5683H49.5003V27.8763H45.9492V8.42433H49.1334L58.4615 21.7287H58.6444V8.42553H62.1674L62.1662 8.42433ZM71.5712 28.1595C70.1241 28.1595 68.8698 27.8463 67.808 27.2187C66.7479 26.5932 65.8938 25.6798 65.3479 24.5883C64.7701 23.4615 64.48 22.1451 64.48 20.6379C64.48 19.1307 64.7689 17.8107 65.3479 16.6779C65.927 15.5451 66.7474 14.6643 67.808 14.0379C68.8685 13.4115 70.1241 13.0971 71.5712 13.0971C73.0121 13.0971 74.2628 13.4115 75.3234 14.0379C76.384 14.6643 77.2056 15.5451 77.7834 16.6779C78.3686 17.8107 78.6611 19.1307 78.6611 20.6379C78.6611 22.1451 78.3686 23.4615 77.7834 24.5883C77.2378 25.6803 76.3836 26.594 75.3234 27.2199C74.2628 27.8463 73.0121 28.1595 71.5712 28.1595ZM71.5809 25.4235C72.3782 25.4235 73.0401 25.2123 73.568 24.7875C74.0958 24.3579 74.4908 23.7819 74.7541 23.0595C75.0186 22.3311 75.1503 21.5211 75.1503 20.6283C75.1503 19.7355 75.0186 18.9255 74.7541 18.1971C74.4908 17.4687 74.0958 16.8891 73.568 16.4595C73.0401 16.0227 72.3782 15.8043 71.5809 15.8043C70.7763 15.8043 70.1071 16.0227 69.5744 16.4595C69.0404 16.8903 68.6418 17.4687 68.3773 18.1971C68.1213 18.9255 67.992 19.7355 67.992 20.6283C67.992 21.5211 68.12 22.3323 68.3773 23.0595C68.6418 23.7819 69.0404 24.3579 69.5744 24.7875C70.1083 25.2123 70.7763 25.4235 71.5809 25.4235ZM88.1746 13.2891V15.9291H79.6851V13.2891H88.1746ZM81.7868 9.79233H85.2513V23.4963C85.2513 23.9583 85.322 24.3123 85.4634 24.5607C85.6109 24.8067 85.8048 24.9747 86.0425 25.0635C86.2802 25.1523 86.5472 25.1955 86.8434 25.1955C87.0435 25.1972 87.2434 25.1815 87.4407 25.1487C87.6211 25.1175 87.7626 25.0887 87.8662 25.0635L88.444 27.7323C88.1845 27.8153 87.9208 27.885 87.6541 27.9411C87.3127 28.0167 86.8946 28.0611 86.3984 28.0731C85.5305 28.0995 84.7466 27.9699 84.0457 27.6843C83.3706 27.4087 82.7933 26.9428 82.3865 26.3451C81.9806 25.7379 81.7819 24.9747 81.788 24.0567V9.79233H81.7868ZM90.2994 27.8751V13.2879H93.7737V27.8751H90.2994ZM92.0463 11.2071C91.4928 11.2071 91.0198 11.0271 90.6273 10.6671C90.4405 10.5019 90.2914 10.2996 90.1899 10.0735C90.0884 9.84744 90.0368 9.60271 90.0385 9.35553C90.0385 8.84313 90.2348 8.40633 90.6273 8.04513C91.0078 7.68501 91.5172 7.4871 92.0451 7.49433C92.5985 7.49433 93.0715 7.67793 93.464 8.04633C93.8627 8.40633 94.0614 8.84313 94.0614 9.35553C94.0614 9.86193 93.8627 10.2987 93.464 10.6659C93.0715 11.0271 92.5985 11.2083 92.0463 11.2083V11.2071ZM103.006 28.1595C101.559 28.1595 100.304 27.8463 99.2423 27.2187C98.1823 26.5932 97.3281 25.6799 96.7823 24.5883C96.2045 23.4615 95.9143 22.1451 95.9143 20.6379C95.9143 19.1307 96.2045 17.8107 96.7823 16.6779C97.3613 15.5451 98.1817 14.6643 99.2423 14.0379C100.304 13.4115 101.559 13.0971 103.006 13.0971C104.446 13.0971 105.697 13.4115 106.758 14.0379C107.82 14.6643 108.64 15.5451 109.219 16.6779C109.804 17.8107 110.097 19.1307 110.097 20.6379C110.097 22.1451 109.804 23.4615 109.219 24.5883C108.673 25.6805 107.818 26.5943 106.758 27.2199C105.697 27.8463 104.446 28.1595 103.006 28.1595ZM103.015 25.4235C103.813 25.4235 104.474 25.2123 105.002 24.7875C105.53 24.3579 105.925 23.7819 106.19 23.0595C106.453 22.3311 106.585 21.5211 106.585 20.6283C106.585 19.7355 106.453 18.9255 106.19 18.1971C105.925 17.4687 105.53 16.8891 105.002 16.4595C104.474 16.0227 103.813 15.8043 103.015 15.8043C102.211 15.8043 101.543 16.0227 101.009 16.4595C100.475 16.8903 100.076 17.4687 99.8116 18.1971C99.5556 18.9255 99.4264 19.7355 99.4264 20.6283C99.4264 21.5211 99.5544 22.3323 99.8116 23.0595C100.076 23.7819 100.475 24.3579 101.009 24.7875C101.543 25.2123 102.211 25.4235 103.015 25.4235ZM115.701 19.3179V27.8739H112.229V13.2891H115.547V15.7575H115.721C116.05 14.9624 116.619 14.2861 117.351 13.8207C118.103 13.3395 119.034 13.0983 120.14 13.0983C121.156 13.0983 122.043 13.3143 122.803 13.7451C123.571 14.1797 124.19 14.8314 124.578 15.6159C125.002 16.4319 125.214 17.4231 125.214 18.5883V27.8763H121.752V19.1103C121.752 18.1347 121.494 17.3727 120.979 16.8219C120.463 16.2651 119.753 15.9855 118.846 15.9855C118.236 15.9855 117.693 16.1187 117.216 16.3851C116.741 16.6443 116.367 17.0235 116.097 17.5251C115.834 18.0171 115.701 18.6171 115.701 19.3191V19.3179Z" fill="#FAF9F5"/>
</g>
</svg>
